<?xml version="1.0" encoding="utf-8"?>
<svg xmlns="http://www.w3.org/2000/svg" xmlns:xlink="http://www.w3.org/1999/xlink" style="margin: auto; background: none; display: block; shape-rendering: auto;" width="200px" height="200px" viewBox="0 0 100 100" preserveAspectRatio="xMidYMid">
<g transform="rotate(0 50 50)">
  <rect x="47.5" y="19.5" rx="0" ry="0" width="5" height="15" fill="#000000">
    <animate attributeName="opacity" values="1;0" keyTimes="0;1" dur="0.6211180124223602s" begin="-0.5590062111801242s" repeatCount="indefinite"></animate>
  </rect>
</g><g transform="rotate(36 50 50)">
  <rect x="47.5" y="19.5" rx="0" ry="0" width="5" height="15" fill="#000000">
    <animate attributeName="opacity" values="1;0" keyTimes="0;1" dur="0.6211180124223602s" begin="-0.49689440993788814s" repeatCount="indefinite"></animate>
  </rect>
</g><g transform="rotate(72 50 50)">
  <rect x="47.5" y="19.5" rx="0" ry="0" width="5" height="15" fill="#000000">
    <animate attributeName="opacity" values="1;0" keyTimes="0;1" dur="0.6211180124223602s" begin="-0.43478260869565216s" repeatCount="indefinite"></animate>
  </rect>
</g><g transform="rotate(108 50 50)">
  <rect x="47.5" y="19.5" rx="0" ry="0" width="5" height="15" fill="#000000">
    <animate attributeName="opacity" values="1;0" keyTimes="0;1" dur="0.6211180124223602s" begin="-0.37267080745341613s" repeatCount="indefinite"></animate>
  </rect>
</g><g transform="rotate(144 50 50)">
  <rect x="47.5" y="19.5" rx="0" ry="0" width="5" height="15" fill="#000000">
    <animate attributeName="opacity" values="1;0" keyTimes="0;1" dur="0.6211180124223602s" begin="-0.3105590062111801s" repeatCount="indefinite"></animate>
  </rect>
</g><g transform="rotate(180 50 50)">
  <rect x="47.5" y="19.5" rx="0" ry="0" width="5" height="15" fill="#000000">
    <animate attributeName="opacity" values="1;0" keyTimes="0;1" dur="0.6211180124223602s" begin="-0.24844720496894407s" repeatCount="indefinite"></animate>
  </rect>
</g><g transform="rotate(216 50 50)">
  <rect x="47.5" y="19.5" rx="0" ry="0" width="5" height="15" fill="#000000">
    <animate attributeName="opacity" values="1;0" keyTimes="0;1" dur="0.6211180124223602s" begin="-0.18633540372670807s" repeatCount="indefinite"></animate>
  </rect>
</g><g transform="rotate(252 50 50)">
  <rect x="47.5" y="19.5" rx="0" ry="0" width="5" height="15" fill="#000000">
    <animate attributeName="opacity" values="1;0" keyTimes="0;1" dur="0.6211180124223602s" begin="-0.12422360248447203s" repeatCount="indefinite"></animate>
  </rect>
</g><g transform="rotate(288 50 50)">
  <rect x="47.5" y="19.5" rx="0" ry="0" width="5" height="15" fill="#000000">
    <animate attributeName="opacity" values="1;0" keyTimes="0;1" dur="0.6211180124223602s" begin="-0.06211180124223602s" repeatCount="indefinite"></animate>
  </rect>
</g><g transform="rotate(324 50 50)">
  <rect x="47.5" y="19.5" rx="0" ry="0" width="5" height="15" fill="#000000">
    <animate attributeName="opacity" values="1;0" keyTimes="0;1" dur="0.6211180124223602s" begin="0s" repeatCount="indefinite"></animate>
  </rect>
</g>
<!-- [ldio] generated by https://loading.io/ --></svg>